# Blender v2.79 (sub 0) OBJ File: 'upgradeArrow.blend'
# www.blender.org
mtllib upgradeArrow.mtl
o Cube
v 1.000000 -2.263383 -1.000000
v 1.000000 -2.263383 1.000000
v -1.000000 -2.263383 1.000000
v -1.000000 -2.263383 -1.000000
v 1.000000 2.263383 -1.000000
v 0.999999 2.263383 1.000001
v -1.000000 2.263383 1.000000
v -1.000000 2.263383 -1.000000
v -2.428248 2.072799 0.987004
v -0.015522 5.275587 0.987004
v -2.428248 2.072799 -1.012996
v -0.015522 5.275587 -1.012996
v 2.501673 2.072799 0.987004
v -0.015522 5.275587 0.987004
v 2.501673 2.072799 -1.012996
v -0.015522 5.275587 -1.012996
vn 0.0000 -1.0000 0.0000
vn 0.0000 1.0000 0.0000
vn 1.0000 0.0000 0.0000
vn -0.0000 -0.0000 1.0000
vn -1.0000 -0.0000 -0.0000
vn 0.0000 0.0000 -1.0000
vn -0.7987 0.6017 0.0000
vn 0.7862 0.6179 0.0000
usemtl Material
s off
f 1//1 2//1 3//1 4//1
f 5//2 8//2 7//2 6//2
f 1//3 5//3 6//3 2//3
f 2//4 6//4 7//4 3//4
f 3//5 7//5 8//5 4//5
f 5//6 1//6 4//6 8//6
f 9//7 10//7 12//7 11//7
f 11//6 12//6 16//6 15//6
f 15//8 16//8 14//8 13//8
f 13//4 14//4 10//4 9//4
f 11//1 15//1 13//1 9//1
f 16//4 12//4 10//4 14//4
